<svg width="19" height="18" viewBox="0 0 19 18" fill="none" xmlns="http://www.w3.org/2000/svg">
<g clip-path="url(#clip0_18175_637)">
<path d="M9.5 18C14.4706 18 18.5 13.9706 18.5 9C18.5 4.02944 14.4706 0 9.5 0C4.52944 0 0.5 4.02944 0.5 9C0.5 13.9706 4.52944 18 9.5 18Z" fill="#F0F0F0"/>
<path d="M2.36061 3.52051C1.65365 4.4403 1.12058 5.50044 0.810181 6.65212H5.49222L2.36061 3.52051Z" fill="#0052B4"/>
<path d="M18.1901 6.65221C17.8798 5.50056 17.3466 4.44042 16.6397 3.52063L13.5082 6.65221H18.1901Z" fill="#0052B4"/>
<path d="M0.810181 11.3478C1.12061 12.4994 1.65368 13.5596 2.36061 14.4793L5.49211 11.3478H0.810181Z" fill="#0052B4"/>
<path d="M14.9796 1.8604C14.0598 1.15344 12.9997 0.620366 11.848 0.309937V4.99194L14.9796 1.8604Z" fill="#0052B4"/>
<path d="M4.02069 16.1394C4.94048 16.8464 6.00062 17.3795 7.15227 17.6899V13.0079L4.02069 16.1394Z" fill="#0052B4"/>
<path d="M7.15223 0.309937C6.00059 0.620366 4.94045 1.15344 4.02069 1.86036L7.15223 4.9919V0.309937Z" fill="#0052B4"/>
<path d="M11.848 17.6899C12.9997 17.3795 14.0598 16.8464 14.9796 16.1395L11.848 13.0079V17.6899Z" fill="#0052B4"/>
<path d="M13.5082 11.3478L16.6397 14.4794C17.3466 13.5596 17.8798 12.4994 18.1901 11.3478H13.5082Z" fill="#0052B4"/>
<path d="M18.4238 7.8261H10.674H10.6739V0.0761836C10.2896 0.0261563 9.89786 0 9.5 0C9.10207 0 8.71035 0.0261563 8.3261 0.0761836V7.82603V7.82606H0.576184C0.526156 8.21036 0.5 8.60214 0.5 9C0.5 9.39793 0.526156 9.78964 0.576184 10.1739H8.32603H8.32606V17.9238C8.71036 17.9738 9.10207 18 9.5 18C9.89786 18 10.2896 17.9739 10.6739 17.9238V10.174V10.1739H18.4238C18.4738 9.78964 18.5 9.39793 18.5 9C18.5 8.60214 18.4738 8.21035 18.4238 7.8261Z" fill="#D80027"/>
<path d="M11.848 11.3478L15.8641 15.3639C16.0488 15.1793 16.225 14.9862 16.3931 14.7861L12.9548 11.3478H11.848V11.3478Z" fill="#D80027"/>
<path d="M7.15225 11.3479H7.15218L3.13611 15.364C3.32075 15.5487 3.51379 15.7249 3.7139 15.893L7.15225 12.4546V11.3479Z" fill="#D80027"/>
<path d="M7.15232 6.65232V6.65225L3.13621 2.63611C2.9515 2.82075 2.77529 3.01379 2.60718 3.2139L6.04556 6.65229H7.15232V6.65232Z" fill="#D80027"/>
<path d="M11.848 6.65223L15.8641 2.63605C15.6795 2.45134 15.4864 2.27514 15.2863 2.10706L11.848 5.54544V6.65223Z" fill="#D80027"/>
</g>
<defs>
<clipPath id="clip0_18175_637">
<rect width="18" height="18" fill="white" transform="translate(0.5)"/>
</clipPath>
</defs>
</svg>
